<?xml version="1.0" encoding="UTF-8" standalone="no"?>
<svg
   xmlns:svg="http://www.w3.org/2000/svg"
   xmlns="http://www.w3.org/2000/svg"
   width="40px"
   height="30px"
   viewBox="0 0 10.583333 30"
   version="1.1">
    <g
       id="g2772">
      <path
         d="M 0.480706,3.571956 0.15615,2.924039 0.07807,2.770814 0,2.617588 1.357153,2.639708 2.71431,2.661828 3.240643,2.484774 3.766973,2.307723 V 1.999882 1.69204 L 4.234822,1.569696 4.702672,1.44735 V 0.723675 0 h 0.294619 0.294616 l 0.292177,0.46785 0.292179,0.467849 h 0.365609 0.365617 l 0.297234,0.297233 0.297233,0.297233 0.2791,0.521504 0.279099,0.521505 0.752026,0.0036 0.752027,0.0036 -0.350888,0.226762 -0.350887,0.226761 1.01045,0.0036 1.01045,0.0036 -0.07475,0.526331 -0.07475,0.52633 -4.814283,0.06311 -4.814286,0.06311 z m 9.777861,-0.0046 0.09729,-0.292407 H 9.420159 8.484458 L 8.348002,2.982545 8.211547,2.690138 8.075787,2.980455 7.940026,3.270774 7.638799,2.969546 7.33757,2.668318 7.155134,2.094415 6.972698,1.520513 6.789826,1.988365 6.606953,2.456215 6.590523,1.81292 6.574063,1.169625 H 6.385296 6.196529 L 5.942333,1.81292 5.688137,2.456212 5.655817,1.754439 5.623487,1.052663 5.280039,0.598586 4.936592,0.144508 V 0.898332 1.652159 L 4.585707,1.786808 4.234819,1.921455 v 0.32586 0.325861 H 3.883931 3.533041 L 3.529441,2.982545 3.525841,3.391913 3.2955,3.041026 3.065156,2.690138 2.856339,3.014205 2.647522,3.338272 1.979121,3.17854 1.31072,3.018809 0.898817,2.896386 0.486913,2.773963 0.763115,3.380158 1.039316,3.98635 5.600275,3.92306 10.161234,3.85977 Z M 0.480706,3.571956 0.15615,2.924039 0.07807,2.770814 0,2.617588 1.357153,2.639708 2.71431,2.661828 3.240643,2.484774 3.766973,2.307723 V 1.999882 1.69204 L 4.234822,1.569696 4.702672,1.44735 V 0.723675 0 h 0.294619 0.294616 l 0.292177,0.46785 0.292179,0.467849 h 0.365609 0.365617 l 0.297234,0.297233 0.297233,0.297233 0.2791,0.521504 0.279099,0.521505 0.752026,0.0036 0.752027,0.0036 -0.350888,0.226762 -0.350887,0.226761 1.01045,0.0036 1.01045,0.0036 -0.07475,0.526331 -0.07475,0.52633 -4.814283,0.06311 -4.814286,0.06311 z m 9.777861,-0.0046 0.09729,-0.292407 H 9.420159 8.484458 L 8.348002,2.982545 8.211547,2.690138 8.075787,2.980455 7.940026,3.270774 7.638799,2.969546 7.33757,2.668318 7.155134,2.094415 6.972698,1.520513 6.789826,1.988365 6.606953,2.456215 6.590523,1.81292 6.574063,1.169625 H 6.385296 6.196529 L 5.942333,1.81292 5.688137,2.456212 5.655817,1.754439 5.623487,1.052663 5.280039,0.598586 4.936592,0.144508 V 0.898332 1.652159 L 4.585707,1.786808 4.234819,1.921455 v 0.32586 0.325861 H 3.883931 3.533041 L 3.529441,2.982545 3.525841,3.391913 3.2955,3.041026 3.065156,2.690138 2.856339,3.014205 2.647522,3.338272 1.979121,3.17854 1.31072,3.018809 0.898817,2.896386 0.486913,2.773963 0.763115,3.380158 1.039316,3.98635 5.600275,3.92306 10.161234,3.85977 Z M 2.363426,2.924034 V 2.80707 H 2.246461 2.1295 v 0.116964 0.116962 h 0.116961 0.116965 z"
         fill="black"
         />
      <path
         fill="white"
         d="M 0.791517,3.402181 C 0.649375,3.088528 0.533075,2.825741 0.533075,2.818211 c 0,-0.0075 0.159105,0.03365 0.353568,0.09151 0.194461,0.05786 0.653764,0.177091 1.020673,0.264954 0.366908,0.08786 0.685207,0.165102 0.707331,0.171643 0.02768,0.0082 0.101844,-0.08372 0.237816,-0.294719 0.108672,-0.168638 0.204645,-0.306314 0.213273,-0.305946 0.0086,2.64e-4 0.117755,0.153471 0.242503,0.340225 l 0.226817,0.339556 0.0074,-0.420278 0.0074,-0.420277 H 3.896074 4.242292 L 4.242821,2.257997 4.24335,1.931115 4.5965,1.797365 4.949653,1.663616 l 0.01334,-0.718683 0.01333,-0.718682 0.316502,0.417385 0.3165,0.417388 0.03306,0.695656 c 0.01818,0.382611 0.03818,0.700778 0.04444,0.707038 0.0063,0.0063 0.126572,-0.279127 0.267362,-0.634193 l 0.255982,-0.64557 0.173902,-0.0078 0.1739,-0.0078 0.01971,0.65692 c 0.01085,0.361308 0.02809,0.647013 0.03835,0.634903 0.01024,-0.01212 0.08802,-0.202139 0.172822,-0.422286 0.0848,-0.220144 0.16275,-0.409448 0.173223,-0.420674 0.01047,-0.01122 0.09539,0.222927 0.188702,0.520343 l 0.16966,0.540755 0.295147,0.300196 c 0.162331,0.165111 0.305147,0.300199 0.317369,0.300199 0.01222,0 0.0802,-0.123081 0.15106,-0.273513 L 8.212853,2.731682 8.339782,3.005198 8.466712,3.278711 H 9.39662 c 0.51145,0 0.929908,0.0084 0.929908,0.01865 0,0.01027 -0.0382,0.1352 -0.0849,0.277654 l -0.0849,0.259009 -0.375406,0.0154 c -0.206474,0.0085 -1.432103,0.0282 -2.723622,0.04383 -1.291517,0.01564 -3.056682,0.03971 -3.922586,0.0535 -0.865905,0.01378 -1.689225,0.02521 -1.829602,0.0254 l -0.25523,2.64e-4 z"
         />
    </g>
</svg>
