<?xml version="1.0" encoding="UTF-8" standalone="no"?>
<svg
        xmlns="http://www.w3.org/2000/svg"
        version="1.1"
        viewBox="0 0 40 20"
        height="20mm"
        width="40mm">
  <g
     id="army">
    <g>
      <path fill="rgb(124,104,188)" d="M 2.07258,17.09747 0,14.194934 0.0318,12.415714 0.0636,10.636493 1.3237,8.811675 2.5838,6.986856 6.7919,7.223536 11,7.460214 V 6.69826 5.936304 L 8.89464,5.329805 6.78929,4.723314 7.21266,3.324158 7.63604,1.925003 11.0079,0.96249703 14.37977,0 22.21019,1.738085 30.04061,3.476161 H 35.02031 40 v 1.101595 1.101585 l -6.75,0.0442 -6.75,0.04428 5.5,2.60928 5.49999,2.60927 0.34051,1.851116 0.34051,1.851116 -2.26482,2.655695 L 33.65137,20 H 18.89826 4.14516 Z m 0,0 L 0,14.194934 0.0318,12.415714 0.0636,10.636493 1.3237,8.811675 2.5838,6.986856 6.7919,7.223536 11,7.460214 V 6.69826 5.936304 L 8.89464,5.329805 6.78929,4.723314 7.21266,3.324158 7.63604,1.925003 11.0079,0.96249703 14.37977,0 22.21019,1.738085 30.04061,3.476161 H 35.02031 40 v 1.101595 1.101585 l -6.75,0.0442 -6.75,0.04428 5.5,2.60928 5.49999,2.60927 0.34051,1.851116 0.34051,1.851116 -2.26482,2.655695 L 33.65137,20 H 18.89826 4.14516 Z"/>
      <path id="23077b73-92e3-40cb-ab8f-4cd83f023a24" fill="black" d="M 2.07258,17.09747 0,14.194934 0.0318,12.415714 0.0636,10.636493 1.3237,8.811675 2.5838,6.986856 6.7919,7.223536 11,7.460214 V 6.69826 5.936304 L 8.89464,5.329805 6.78929,4.723314 7.21266,3.324158 7.63604,1.925003 11.0079,0.962497 14.37977,0 22.21019,1.738085 30.04061,3.476161 H 35.02031 40 v 1.101595 1.101585 l -6.75,0.0442 -6.75,0.04428 5.5,2.60928 5.49999,2.60927 0.34051,1.851116 0.34051,1.851116 -2.26482,2.655695 L 33.65137,20 H 18.89826 4.14516 Z m 9.12743,0.479034 -1.2,-1.321907 -1.2,1.321907 -1.2,1.321907 h 2.4 2.4 z m 6,0 -1.2,-1.321907 -1.2,1.321907 -1.2,1.321907 h 2.4 2.4 z m 6,0 -1.2,-1.321907 -1.2,1.321907 -1.2,1.321907 h 2.4 2.4 z m 6,0 -1.2,-1.321907 -1.2,1.321907 -1.2,1.321907 h 2.4 2.4 z M 36.72665,13.74618 37.11807,12.449505 32.43192,10.16601 27.74577,7.882523 24.62288,7.812713 21.5,7.742893 23.75,6.746622 26,5.750358 V 4.833677 3.916992 L 20.25001,2.652035 14.50001,1.387077 11.75,2.009258 9,2.631437 V 3.604609 4.57778 h 1.3857 1.38569 l 2.6403,1.508957 2.6403,1.508957 L 13.901,8.289918 10.75001,8.984134 H 6.99745 3.24489 l -1.23432,1.638355 -1.23432,1.638355 0.58959,1.692528 0.58959,1.692528 17.18991,-0.30151 17.1899,-0.301519 z M 2.07258,17.09747 0,14.194934 0.0318,12.415714 0.0636,10.636493 1.3237,8.811675 2.5838,6.986856 6.7919,7.223536 11,7.460214 V 6.69826 5.936304 L 8.89464,5.329805 6.78929,4.723314 7.21266,3.324158 7.63604,1.925003 11.0079,0.962497 14.37977,0 22.21019,1.738085 30.04061,3.476161 H 35.02031 40 v 1.101595 1.101585 l -6.75,0.0442 -6.75,0.04428 5.5,2.60928 5.49999,2.60927 0.34051,1.851116 0.34051,1.851116 -2.26482,2.655695 L 33.65137,20 H 18.89826 4.14516 Z M 6,18.412627 v -0.485785 l -1.1545,-0.786005 -1.15451,-0.786014 0.71352,1.271798 0.71353,1.27179 H 5.55902 6 Z m 5.20001,-0.836123 -1.2,-1.321907 -1.2,1.321907 -1.2,1.321907 h 2.4 2.4 z m 6,0 -1.2,-1.321907 -1.2,1.321907 -1.2,1.321907 h 2.4 2.4 z m 6,0 -1.2,-1.321907 -1.2,1.321907 -1.2,1.321907 h 2.4 2.4 z m 6,0 -1.2,-1.321907 -1.2,1.321907 -1.2,1.321907 h 2.4 2.4 z M 33.5,17.796825 34.11804,16.695231 h -0.5 -0.5 l -0.61803,1.101594 -0.61804,1.101586 h 0.5 0.5 z M 36.72665,13.74618 37.11807,12.449505 32.43192,10.16601 27.74577,7.882523 24.62288,7.812713 21.5,7.742893 23.75,6.746622 26,5.750358 V 4.833677 3.916992 L 20.25001,2.652035 14.50001,1.387077 11.75,2.009258 9,2.631437 V 3.604609 4.57778 h 1.3857 1.38569 l 2.6403,1.508957 2.6403,1.508957 L 13.901,8.289918 10.75001,8.984134 H 6.99745 3.24489 l -1.23432,1.638355 -1.23432,1.638355 0.58959,1.692528 0.58959,1.692528 17.18991,-0.30151 17.1899,-0.301519 z"/>
    </g>
  </g>
</svg>
