<?xml version="1.0" encoding="UTF-8" standalone="no"?>
<svg
   xmlns:osb="http://www.openswatchbook.org/uri/2009/osb"
   xmlns:dc="http://purl.org/dc/elements/1.1/"
   xmlns:cc="http://creativecommons.org/ns#"
   xmlns:rdf="http://www.w3.org/1999/02/22-rdf-syntax-ns#"
   xmlns:svg="http://www.w3.org/2000/svg"
   xmlns="http://www.w3.org/2000/svg"
   xmlns:sodipodi="http://sodipodi.sourceforge.net/DTD/sodipodi-0.dtd"
   xmlns:inkscape="http://www.inkscape.org/namespaces/inkscape"
   width="40mm"
   height="18.15559mm"
   viewBox="0 0 40 18.15559"
   version="1.1"
   id="svg2599"
   inkscape:version="1.0 (4035a4fb49, 2020-05-01)"
   sodipodi:docname="unit.svg">
  <defs
     id="defs2593">
    <linearGradient
       osb:paint="solid"
       id="Paraguay"
       gradientTransform="matrix(0,0,0,0,113.54462,188.0885)">
      <stop
         id="stop3201"
         offset="0"
         style="stop-color:#8fc8db;stop-opacity:1;" />
    </linearGradient>
  </defs>
  <sodipodi:namedview
     fit-margin-bottom="0"
     fit-margin-right="0"
     fit-margin-left="0"
     fit-margin-top="0"
     id="base"
     pagecolor="#ffffff"
     bordercolor="#666666"
     borderopacity="1.0"
     inkscape:pageopacity="0.0"
     inkscape:pageshadow="2"
     inkscape:zoom="3.9597979"
     inkscape:cx="70.673358"
     inkscape:cy="26.280775"
     inkscape:document-units="mm"
     inkscape:current-layer="layer1"
     inkscape:document-rotation="0"
     showgrid="false"
     inkscape:window-width="1920"
     inkscape:window-height="1001"
     inkscape:window-x="-9"
     inkscape:window-y="435"
     inkscape:window-maximized="1" />
  <metadata
     id="metadata2596">
    <rdf:RDF>
      <cc:Work
         rdf:about="">
        <dc:format>image/svg+xml</dc:format>
        <dc:type
           rdf:resource="http://purl.org/dc/dcmitype/StillImage" />
        <dc:title />
      </cc:Work>
    </rdf:RDF>
  </metadata>
  <g
     transform="translate(172.76482,-65.658708)"
     inkscape:label="Layer 1"
     inkscape:groupmode="layer"
     id="layer1">
    <g
       id="army">
      <path
         d="m -170.69224,81.179442 -2.07258,-2.634863 0.0318,-1.61514 0.0318,-1.61514 1.2601,-1.656533 1.2601,-1.656533 4.2081,0.214853 4.2081,0.214852 v -0.691687 -0.691688 l -2.10536,-0.550567 -2.10535,-0.55056 0.42337,-1.270125 0.42338,-1.270125 3.37186,-0.873743 3.37187,-0.873735 7.83042,1.577798 7.83042,1.57779 h 4.9797 4.97969 v 1.000005 0.999997 l -6.75,0.04012 -6.75,0.0402 5.5,2.368651 5.49999,2.368642 0.34051,1.680405 0.34051,1.680405 -2.26482,2.410786 -2.26482,2.410792 h -14.75311 -14.7531 z m 9.12743,0.434857 -1.2,-1.2 -1.2,1.2 -1.2,1.2 h 2.4 2.4 z m 6,0 -1.2,-1.2 -1.2,1.2 -1.2,1.2 h 2.4 2.4 z m 6,0 -1.2,-1.2 -1.2,1.2 -1.2,1.2 h 2.4 2.4 z m 6,0 -1.2,-1.2 -1.2,1.2 -1.2,1.2 h 2.4 2.4 z m 7.52664,-3.47709 0.39142,-1.177095 -4.68615,-2.07291 -4.68615,-2.072903 -3.12289,-0.06337 -3.12288,-0.06338 2.25,-0.904395 2.25,-0.904388 v -0.832147 -0.832148 l -5.74999,-1.148302 -5.75,-1.148303 -2.75001,0.564803 -2.75,0.564802 v 0.883425 0.883425 h 1.3857 1.38569 l 2.6403,1.3698 2.6403,1.369801 -3.15099,0.630202 -3.15099,0.630195 h -3.75256 -3.75256 l -1.23432,1.487265 -1.23432,1.487265 0.58959,1.536443 0.58959,1.536442 17.18991,-0.273705 17.1899,-0.273712 z m -34.65407,3.042233 -2.07258,-2.634863 0.0318,-1.61514 0.0318,-1.61514 1.2601,-1.656533 1.2601,-1.656533 4.2081,0.214853 4.2081,0.214852 v -0.691687 -0.691688 l -2.10536,-0.550567 -2.10535,-0.55056 0.42337,-1.270125 0.42338,-1.270125 3.37186,-0.873743 3.37187,-0.873735 7.83042,1.577798 7.83042,1.57779 h 4.9797 4.97969 v 1.000005 0.999997 l -6.75,0.04012 -6.75,0.0402 5.5,2.368651 5.49999,2.368642 0.34051,1.680405 0.34051,1.680405 -2.26482,2.410786 -2.26482,2.410792 h -14.75311 -14.7531 z m 3.92742,1.193872 v -0.440985 l -1.1545,-0.71352 -1.15451,-0.713527 0.71352,1.154512 0.71353,1.154505 h 0.44098 0.44098 z m 5.20001,-0.759015 -1.2,-1.2 -1.2,1.2 -1.2,1.2 h 2.4 2.4 z m 6,0 -1.2,-1.2 -1.2,1.2 -1.2,1.2 h 2.4 2.4 z m 6,0 -1.2,-1.2 -1.2,1.2 -1.2,1.2 h 2.4 2.4 z m 6,0 -1.2,-1.2 -1.2,1.2 -1.2,1.2 h 2.4 2.4 z m 4.29999,0.200003 0.61804,-1.000005 h -0.5 -0.5 l -0.61803,1.000005 -0.61804,0.999997 h 0.5 0.5 z m 3.22665,-3.677093 0.39142,-1.177095 -4.68615,-2.07291 -4.68615,-2.072903 -3.12289,-0.06337 -3.12288,-0.06338 2.25,-0.904395 2.25,-0.904388 v -0.832147 -0.832148 l -5.74999,-1.148302 -5.75,-1.148303 -2.75001,0.564803 -2.75,0.564802 v 0.883425 0.883425 h 1.3857 1.38569 l 2.6403,1.3698 2.6403,1.369801 -3.15099,0.630202 -3.15099,0.630195 h -3.75256 -3.75256 l -1.23432,1.487265 -1.23432,1.487265 0.58959,1.536443 0.58959,1.536442 17.18991,-0.273705 17.1899,-0.273712 z"
         style="fill:#000000;stroke-width:0.999998"
         id="path875-1-0-3" />
      <path
         id="path2587-9-1"
         d="m -171.35013,78.286744 -0.56216,-1.478215 1.22777,-1.49336 1.22778,-1.493361 3.88287,-0.0034 3.88288,-0.0034 2.82391,-0.558714 c 1.55315,-0.307292 2.91198,-0.594449 3.01963,-0.638127 0.2226,-0.09032 0.0174,-0.210539 -3.18488,-1.866041 l -1.87976,-0.971789 h -1.4232 -1.42321 v -0.839418 -0.839417 l 2.74511,-0.563596 2.74511,-0.563595 5.4997,1.098437 c 3.02483,0.60414 5.60181,1.122899 5.72662,1.152799 0.2113,0.05062 0.22678,0.108022 0.22486,0.834059 l -0.002,0.779697 -2.22061,0.895404 c -1.22133,0.492473 -2.19666,0.919354 -2.16739,0.948625 0.0293,0.02927 1.42658,0.08049 3.10514,0.11383 l 3.05191,0.06061 4.63928,2.055121 c 2.55161,1.130316 4.65006,2.063594 4.66323,2.073951 0.0212,0.01664 -0.67996,2.186656 -0.72613,2.247384 -0.0101,0.01323 -4.16768,0.0922 -9.23917,0.175485 -5.07149,0.08329 -11.87587,0.197289 -15.12085,0.253335 -3.24497,0.05605 -6.81216,0.101885 -7.92709,0.101863 l -2.02714,-3.8e-5 z"
         style="fill:#ffffff;fill-opacity:1;stroke:#ffffff;stroke-width:0.201708;stroke-linecap:round;stroke-linejoin:round;paint-order:markers stroke fill" />
      <path
         id="path2589-0-0"
         d="m -145.93201,81.656531 1.13405,-1.134046 1.13404,1.134046 1.13405,1.134046 h -2.26809 -2.2681 z"
         style="fill:#ffffff;fill-opacity:1;stroke:#ffffff;stroke-width:0.201708;stroke-linecap:round;stroke-linejoin:round;paint-order:markers stroke fill" />
      <path
         id="path2591-3-0"
         d="m -151.88239,81.656531 1.13405,-1.134046 1.13404,1.134046 1.13405,1.134046 h -2.26809 -2.2681 z"
         style="fill:#ffffff;fill-opacity:1;stroke:#ffffff;stroke-width:0.201708;stroke-linecap:round;stroke-linejoin:round;paint-order:markers stroke fill" />
      <path
         id="path2593-2-7"
         d="m -157.93362,81.656531 1.13404,-1.134046 1.13405,1.134046 1.13404,1.134046 h -2.26809 -2.26809 z"
         style="fill:#ffffff;fill-opacity:1;stroke:#ffffff;stroke-width:0.201708;stroke-linecap:round;stroke-linejoin:round;paint-order:markers stroke fill" />
      <path
         id="path2595-5-4"
         d="m -163.88401,81.656531 1.13405,-1.134046 1.13405,1.134046 1.13404,1.134046 h -2.26809 -2.26809 z"
         style="fill:#ffffff;fill-opacity:1;stroke:#ffffff;stroke-width:0.201708;stroke-linecap:round;stroke-linejoin:round;paint-order:markers stroke fill" />
    </g>
  </g>
</svg>
