<?xml version="1.0" encoding="UTF-8" standalone="no"?>
<svg
   xmlns:osb="http://www.openswatchbook.org/uri/2009/osb"
   xmlns:dc="http://purl.org/dc/elements/1.1/"
   xmlns:cc="http://creativecommons.org/ns#"
   xmlns:rdf="http://www.w3.org/1999/02/22-rdf-syntax-ns#"
   xmlns:svg="http://www.w3.org/2000/svg"
   xmlns="http://www.w3.org/2000/svg"
   xmlns:sodipodi="http://sodipodi.sourceforge.net/DTD/sodipodi-0.dtd"
   xmlns:inkscape="http://www.inkscape.org/namespaces/inkscape"
   sodipodi:docname="unit.svg"
   inkscape:version="1.0 (4035a4fb49, 2020-05-01)"
   id="svg2599"
   version="1.1"
   viewBox="0 0 40 20"
   height="20mm"
   width="40mm">
  <defs
     id="defs2593">
    <linearGradient
       gradientTransform="matrix(0,0,0,0,113.54462,188.0885)"
       id="Paraguay"
       osb:paint="solid">
      <stop
         style="stop-color:#8fc8db;stop-opacity:1;"
         offset="0"
         id="stop3201" />
    </linearGradient>
  </defs>
  <sodipodi:namedview
     inkscape:window-maximized="1"
     inkscape:window-y="435"
     inkscape:window-x="-9"
     inkscape:window-height="1001"
     inkscape:window-width="1920"
     showgrid="false"
     inkscape:document-rotation="0"
     inkscape:current-layer="layer1"
     inkscape:document-units="mm"
     inkscape:cy="163.50577"
     inkscape:cx="-239.0034"
     inkscape:zoom="1.4"
     inkscape:pageshadow="2"
     inkscape:pageopacity="0.0"
     borderopacity="1.0"
     bordercolor="#666666"
     pagecolor="#ffffff"
     id="base"
     fit-margin-top="0"
     fit-margin-left="0"
     fit-margin-right="0"
     fit-margin-bottom="0" />
  <metadata
     id="metadata2596">
    <rdf:RDF>
      <cc:Work
         rdf:about="">
        <dc:format>image/svg+xml</dc:format>
        <dc:type
           rdf:resource="http://purl.org/dc/dcmitype/StillImage" />
        <dc:title></dc:title>
      </cc:Work>
    </rdf:RDF>
  </metadata>
  <g
     id="layer1"
     inkscape:groupmode="layer"
     inkscape:label="Layer 1">
    <path
       d="M 2.07258,17.09747 0,14.194934 0.0318,12.415714 0.0636,10.636493 1.3237,8.811675 2.5838,6.986856 6.7919,7.223536 11,7.460214 V 6.69826 5.936304 L 8.89464,5.329805 6.78929,4.723314 7.21266,3.324158 7.63604,1.925003 11.0079,0.962497 14.37977,0 22.21019,1.738085 30.04061,3.476161 H 35.02031 40 v 1.101595 1.101585 l -6.75,0.0442 -6.75,0.04428 5.5,2.60928 5.49999,2.60927 0.34051,1.851116 0.34051,1.851116 -2.26482,2.655695 L 33.65137,20 H 18.89826 4.14516 Z m 9.12743,0.479034 -1.2,-1.321907 -1.2,1.321907 -1.2,1.321907 h 2.4 2.4 z m 6,0 -1.2,-1.321907 -1.2,1.321907 -1.2,1.321907 h 2.4 2.4 z m 6,0 -1.2,-1.321907 -1.2,1.321907 -1.2,1.321907 h 2.4 2.4 z m 6,0 -1.2,-1.321907 -1.2,1.321907 -1.2,1.321907 h 2.4 2.4 z M 36.72665,13.74618 37.11807,12.449505 32.43192,10.16601 27.74577,7.882523 24.62288,7.812713 21.5,7.742893 23.75,6.746622 26,5.750358 V 4.833677 3.916992 L 20.25001,2.652035 14.50001,1.387077 11.75,2.009258 9,2.631437 V 3.604609 4.57778 h 1.3857 1.38569 l 2.6403,1.508957 2.6403,1.508957 L 13.901,8.289918 10.75001,8.984134 H 6.99745 3.24489 l -1.23432,1.638355 -1.23432,1.638355 0.58959,1.692528 0.58959,1.692528 17.18991,-0.30151 17.1899,-0.301519 z M 2.07258,17.09747 0,14.194934 0.0318,12.415714 0.0636,10.636493 1.3237,8.811675 2.5838,6.986856 6.7919,7.223536 11,7.460214 V 6.69826 5.936304 L 8.89464,5.329805 6.78929,4.723314 7.21266,3.324158 7.63604,1.925003 11.0079,0.962497 14.37977,0 22.21019,1.738085 30.04061,3.476161 H 35.02031 40 v 1.101595 1.101585 l -6.75,0.0442 -6.75,0.04428 5.5,2.60928 5.49999,2.60927 0.34051,1.851116 0.34051,1.851116 -2.26482,2.655695 L 33.65137,20 H 18.89826 4.14516 Z M 6,18.412627 v -0.485785 l -1.1545,-0.786005 -1.15451,-0.786014 0.71352,1.271798 0.71353,1.27179 H 5.55902 6 Z m 5.20001,-0.836123 -1.2,-1.321907 -1.2,1.321907 -1.2,1.321907 h 2.4 2.4 z m 6,0 -1.2,-1.321907 -1.2,1.321907 -1.2,1.321907 h 2.4 2.4 z m 6,0 -1.2,-1.321907 -1.2,1.321907 -1.2,1.321907 h 2.4 2.4 z m 6,0 -1.2,-1.321907 -1.2,1.321907 -1.2,1.321907 h 2.4 2.4 z M 33.5,17.796825 34.11804,16.695231 h -0.5 -0.5 l -0.61803,1.101594 -0.61804,1.101586 h 0.5 0.5 z M 36.72665,13.74618 37.11807,12.449505 32.43192,10.16601 27.74577,7.882523 24.62288,7.812713 21.5,7.742893 23.75,6.746622 26,5.750358 V 4.833677 3.916992 L 20.25001,2.652035 14.50001,1.387077 11.75,2.009258 9,2.631437 V 3.604609 4.57778 h 1.3857 1.38569 l 2.6403,1.508957 2.6403,1.508957 L 13.901,8.289918 10.75001,8.984134 H 6.99745 3.24489 l -1.23432,1.638355 -1.23432,1.638355 0.58959,1.692528 0.58959,1.692528 17.18991,-0.30151 17.1899,-0.301519 z"
       style="fill:#000000;stroke-width:1.04956"
       id="path875-1-0-3" />
    <path
       id="path2587-9-1"
       d="M 1.41469,13.910906 0.85253,12.282521 2.0803,10.637452 3.30808,8.992381 l 3.88287,-0.0037 3.88288,-0.0037 2.82391,-0.615474 c 1.55315,-0.338509 2.91198,-0.654838 3.01963,-0.702953 0.2226,-0.0995 0.0174,-0.231928 -3.18488,-2.055611 L 11.85273,4.540431 H 10.42953 9.00632 V 3.615738 2.691045 l 2.74511,-0.620851 2.74511,-0.62085 5.4997,1.210026 c 3.02483,0.665514 5.60181,1.236973 5.72662,1.269911 0.2113,0.05576 0.22678,0.118996 0.22486,0.91879 l -0.002,0.858906 -2.22061,0.986367 c -1.22133,0.542503 -2.19666,1.01275 -2.16739,1.044995 0.0293,0.03224 1.42658,0.08867 3.10514,0.125394 l 3.05191,0.06677 4.63928,2.263899 c 2.55161,1.245143 4.65006,2.273232 4.66323,2.284641 0.0212,0.01833 -0.67996,2.408797 -0.72613,2.475694 -0.0101,0.01457 -4.16768,0.101567 -9.23917,0.193312 -5.07149,0.09175 -11.87587,0.217332 -15.12085,0.279071 -3.24497,0.06174 -6.81216,0.112236 -7.92709,0.112212 L 1.9769,15.53929 Z"
       style="fill:#ffffff;fill-opacity:1;stroke:#ffffff;stroke-width:0.211706;stroke-linecap:round;stroke-linejoin:round;paint-order:markers stroke fill" />
    <path
       id="path2589-0-0"
       d="m 26.83281,17.623026 1.13405,-1.249252 1.13404,1.249252 1.13405,1.249253 h -2.26809 -2.2681 z"
       style="fill:#ffffff;fill-opacity:1;stroke:#ffffff;stroke-width:0.211706;stroke-linecap:round;stroke-linejoin:round;paint-order:markers stroke fill" />
    <path
       id="path2591-3-0"
       d="m 20.88243,17.623026 1.13405,-1.249252 1.13404,1.249252 1.13405,1.249253 h -2.26809 -2.2681 z"
       style="fill:#ffffff;fill-opacity:1;stroke:#ffffff;stroke-width:0.211706;stroke-linecap:round;stroke-linejoin:round;paint-order:markers stroke fill" />
    <path
       id="path2593-2-7"
       d="m 14.8312,17.623026 1.13404,-1.249252 1.13405,1.249252 1.13404,1.249253 h -2.26809 -2.26809 z"
       style="fill:#ffffff;fill-opacity:1;stroke:#ffffff;stroke-width:0.211706;stroke-linecap:round;stroke-linejoin:round;paint-order:markers stroke fill" />
    <path
       id="path2595-5-4"
       d="m 8.88081,17.623026 1.13405,-1.249252 1.13405,1.249252 1.13404,1.249253 H 10.01486 7.74677 Z"
       style="fill:#ffffff;fill-opacity:1;stroke:#ffffff;stroke-width:0.211706;stroke-linecap:round;stroke-linejoin:round;paint-order:markers stroke fill" />
  </g>
</svg>
